<svg id="Layer_1" data-name="Layer 1" xmlns="http://www.w3.org/2000/svg" viewBox="0 0 529.59 530.59"><defs><style>.cls-1{fill:#2eff6e;}.cls-2{fill:none;stroke:#2eff6e;stroke-linecap:round;stroke-miterlimit:10;stroke-width:24px;}</style></defs><title>queronaLogo</title><path class="cls-1" d="M820.85,677.61c5.89,6,11.69,12.42,19.1,16.57,10.73,6,23.21,4.38,32.92-3a34.2,34.2,0,0,0,11.08-13.74c2.41-5.57,2.69-11.31,4-17.14,2-8.7,7.51-15.29,15.49-19.45,5.74-3,7.46-11,4.31-16.42-3.41-5.82-10.65-7.31-16.42-4.31a52.74,52.74,0,0,0-20.89,19.91A50.52,50.52,0,0,0,864.85,654c-1.07,4.58-1,10.25-2.88,14.26a12.17,12.17,0,0,1-6.21,5.47c.3-.11-4.2.43-1.8.53,1.4.06-.61-.14-1-.29-1-.39.89.59-.88-.47-4.92-2.94-9.48-8-14.24-12.82-10.86-11-27.83,6-17,17Z" transform="translate(-722.33 -251.92)"/><path class="cls-1" d="M839.87,662.69c-4.65-4.58-9.61-9.12-12.5-13.7-.37-.58-1.22-2.5-.62-.89a13.11,13.11,0,0,1-.59-2.11c.55,2.89.34-.3.72-1.31a12.52,12.52,0,0,1,5.4-6.14c3.76-1.74,9.18-1.78,13.53-2.72a50.47,50.47,0,0,0,14-5.42,52.65,52.65,0,0,0,20.55-21.27c3-5.74,1.48-13-4.31-16.42-5.4-3.16-13.41-1.46-16.42,4.31-4,7.7-10.38,13.22-18.72,15.32-5.49,1.39-11.12,1.51-16.44,3.61a34.7,34.7,0,0,0-15.17,11.68c-7.19,9.52-8.91,21.74-3.24,32.38,4.08,7.66,10.76,13.62,16.86,19.63,11,10.85,28-6.11,17-17Z" transform="translate(-722.33 -251.92)"/><path class="cls-1" d="M1150.5,679.66c6-5.89,12.42-11.69,16.57-19.1,6-10.73,4.38-23.21-3-32.92a34.2,34.2,0,0,0-13.74-11.08c-5.57-2.41-11.31-2.69-17.14-4-8.7-2-15.29-7.51-19.45-15.49-3-5.74-11-7.46-16.42-4.31-5.82,3.41-7.31,10.65-4.31,16.42A52.74,52.74,0,0,0,1113,630a50.52,50.52,0,0,0,13.88,5.63c4.58,1.07,10.25,1,14.26,2.88a12.17,12.17,0,0,1,5.47,6.21c-.11-.3.43,4.2.53,1.8.06-1.4-.14.61-.29,1-.39,1,.59-.89-.47.88-2.94,4.92-8,9.48-12.82,14.24-11,10.86,6,27.83,17,17Z" transform="translate(-722.33 -251.92)"/><path class="cls-1" d="M1135.58,660.64c-4.58,4.65-9.12,9.61-13.7,12.5-.58.37-2.5,1.22-.89.62a13.11,13.11,0,0,1-2.11.59c2.89-.55-.3-.34-1.31-.72a12.52,12.52,0,0,1-6.14-5.4c-1.74-3.76-1.78-9.18-2.72-13.53a50.47,50.47,0,0,0-5.42-14A52.65,52.65,0,0,0,1082,620.18c-5.74-3-13-1.48-16.42,4.31-3.16,5.4-1.46,13.41,4.31,16.42,7.7,4,13.22,10.38,15.32,18.72,1.39,5.49,1.51,11.12,3.61,16.44a34.7,34.7,0,0,0,11.68,15.17c9.52,7.19,21.74,8.91,32.38,3.24,7.66-4.08,13.62-10.76,19.63-16.86,10.85-11-6.11-28-17-17Z" transform="translate(-722.33 -251.92)"/><path class="cls-1" d="M1152.55,357.57c-5.89-6-11.69-12.42-19.1-16.57-10.73-6-23.21-4.38-32.92,3a34.2,34.2,0,0,0-11.08,13.74c-2.41,5.57-2.69,11.31-4,17.14-2,8.7-7.51,15.29-15.49,19.45-5.74,3-7.46,11-4.31,16.42,3.41,5.82,10.65,7.31,16.42,4.31a52.74,52.74,0,0,0,20.89-19.91,50.52,50.52,0,0,0,5.63-13.88c1.07-4.58,1-10.25,2.88-14.26a12.17,12.17,0,0,1,6.21-5.47c-.3.11,4.2-.43,1.8-.53-1.4-.06.61.14,1,.29,1,.39-.89-.59.88.47,4.92,2.94,9.48,8,14.24,12.82,10.86,11,27.83-6,17-17Z" transform="translate(-722.33 -251.92)"/><path class="cls-1" d="M1133.53,372.49c4.65,4.58,9.61,9.12,12.5,13.7.37.58,1.22,2.5.62.89a13.11,13.11,0,0,1,.59,2.11c-.55-2.89-.34.3-.72,1.31a12.52,12.52,0,0,1-5.4,6.14c-3.76,1.74-9.18,1.78-13.53,2.72a50.47,50.47,0,0,0-14,5.42A52.65,52.65,0,0,0,1093.07,426c-3,5.74-1.48,13,4.31,16.42,5.4,3.16,13.41,1.46,16.42-4.31,4-7.7,10.38-13.22,18.72-15.32,5.49-1.39,11.12-1.51,16.44-3.61a34.7,34.7,0,0,0,15.17-11.68c7.19-9.52,8.91-21.74,3.24-32.38-4.08-7.66-10.76-13.62-16.86-19.63-11-10.85-28,6.11-17,17Z" transform="translate(-722.33 -251.92)"/><path class="cls-1" d="M822.9,355.52c-6,5.89-12.42,11.69-16.57,19.1-6,10.73-4.38,23.21,3,32.92A34.2,34.2,0,0,0,823,418.61c5.57,2.41,11.31,2.69,17.14,4,8.7,2,15.29,7.51,19.45,15.49,3,5.74,11,7.46,16.42,4.31,5.82-3.41,7.31-10.65,4.31-16.42a52.74,52.74,0,0,0-19.91-20.89,50.52,50.52,0,0,0-13.88-5.63c-4.58-1.07-10.25-1-14.26-2.88a12.17,12.17,0,0,1-5.47-6.21c.11.3-.43-4.2-.53-1.8-.06,1.4.14-.61.29-1,.39-1-.59.89.47-.88,2.94-4.92,8-9.48,12.82-14.24,11-10.86-6-27.83-17-17Z" transform="translate(-722.33 -251.92)"/><path class="cls-1" d="M837.82,374.54c4.58-4.65,9.12-9.61,13.7-12.5.58-.37,2.5-1.22.89-.62a13.11,13.11,0,0,1,2.11-.59c-2.89.55.3.34,1.31.72A12.52,12.52,0,0,1,862,367c1.74,3.76,1.78,9.18,2.72,13.53a50.47,50.47,0,0,0,5.42,14A52.65,52.65,0,0,0,891.37,415c5.74,3,13,1.48,16.42-4.31,3.16-5.4,1.46-13.41-4.31-16.42-7.7-4-13.22-10.38-15.32-18.72-1.39-5.49-1.51-11.12-3.61-16.44a34.7,34.7,0,0,0-11.68-15.17c-9.52-7.19-21.74-8.91-32.38-3.24-7.66,4.08-13.62,10.76-19.63,16.86-10.85,11,6.11,28,17,17Z" transform="translate(-722.33 -251.92)"/><path class="cls-1" d="M949.86,423.09c16.52-6.05,26-21.2,27.25-38.4,1.43-19.1-8.55-36.54-16.17-53.3-6.14-13.51-9.39-28.7-3.62-43a27.16,27.16,0,0,1,4.64-7.81,12,12,0,0,1,5.77-3.19c6-1.74,11.95-1.47,19.14-1.52,15.44-.11,15.47-24.11,0-24-15.14.11-31.83.66-42.8,12.73-12.54,13.79-15.44,34.69-12.7,52.45,2.79,18.11,13.73,33.13,19.23,50.31,2.37,7.41,3.45,15.23,1.55,21.62a25.79,25.79,0,0,1-3,6.31,14.35,14.35,0,0,1-5.68,4.61c-6.08,2.23-10.2,8.14-8.38,14.76,1.61,5.86,8.65,10.62,14.76,8.38Z" transform="translate(-722.33 -251.92)"/><path class="cls-1" d="M1030.68,400c-3.6-1.32-7.08-5.93-8.48-10.25-2.09-6.47-1.22-13.95,1.08-21.43,5.39-17.54,16.68-32.76,19.51-51.18,2.74-17.76-.22-37.87-12.26-51.92-10.8-12.59-27.94-13.15-43.24-13.26s-15.46,23.89,0,24c7.22.05,13-.23,19.14,1.52a12,12,0,0,1,5.77,3.19,26.82,26.82,0,0,1,4.64,7.81c5.78,14.26,2.52,29.44-3.62,43-7.61,16.76-17.59,34.2-16.17,53.3,1.28,17.2,10.73,32.34,27.25,38.4,6.09,2.23,13.15-2.5,14.76-8.38,1.84-6.69-2.27-12.52-8.38-14.76Z" transform="translate(-722.33 -251.92)"/><path class="cls-1" d="M893.5,554.36c-6.05-16.52-21.2-26-38.4-27.25-19.1-1.43-36.54,8.55-53.3,16.17-13.51,6.14-28.7,9.39-43,3.62a27.16,27.16,0,0,1-7.81-4.64,12,12,0,0,1-3.19-5.77c-1.74-6-1.47-11.95-1.52-19.14-.11-15.44-24.11-15.47-24,0,.11,15.14.66,31.83,12.73,42.8,13.79,12.54,34.69,15.44,52.45,12.7,18.11-2.79,33.13-13.73,50.31-19.23,7.41-2.37,15.23-3.45,21.62-1.55a25.79,25.79,0,0,1,6.31,3,14.35,14.35,0,0,1,4.61,5.68c2.23,6.08,8.14,10.2,14.76,8.38,5.86-1.61,10.62-8.65,8.38-14.76Z" transform="translate(-722.33 -251.92)"/><path class="cls-1" d="M870.36,473.54c-1.32,3.6-5.93,7.08-10.25,8.48-6.47,2.09-13.95,1.22-21.43-1.08-17.54-5.39-32.76-16.68-51.18-19.51-17.76-2.74-37.87.22-51.92,12.26-12.59,10.8-13.15,27.94-13.26,43.24s23.89,15.46,24,0c.05-7.22-.23-13,1.52-19.14A12,12,0,0,1,751,492a26.82,26.82,0,0,1,7.81-4.64c14.26-5.78,29.44-2.52,43,3.62,16.76,7.61,34.2,17.59,53.3,16.17,17.2-1.28,32.34-10.73,38.4-27.25,2.23-6.09-2.5-13.15-8.38-14.76-6.69-1.84-12.52,2.27-14.76,8.38Z" transform="translate(-722.33 -251.92)"/><path class="cls-1" d="M1024.3,611.34c-16.52,6.05-26,21.2-27.25,38.4-1.43,19.1,8.55,36.54,16.17,53.3,6.14,13.51,9.39,28.7,3.62,43a27.16,27.16,0,0,1-4.64,7.81,12,12,0,0,1-5.77,3.19c-6,1.74-11.95,1.47-19.14,1.52-15.44.11-15.47,24.11,0,24,15.14-.11,31.83-.66,42.8-12.73,12.54-13.79,15.44-34.69,12.7-52.45-2.79-18.11-13.73-33.13-19.23-50.31-2.37-7.41-3.45-15.23-1.55-21.62a25.79,25.79,0,0,1,3-6.31,14.35,14.35,0,0,1,5.68-4.61c6.08-2.23,10.2-8.14,8.38-14.76-1.61-5.86-8.65-10.62-14.76-8.38Z" transform="translate(-722.33 -251.92)"/><path class="cls-1" d="M943.48,634.48c3.6,1.32,7.08,5.93,8.48,10.25,2.09,6.47,1.22,13.95-1.08,21.43-5.39,17.54-16.68,32.76-19.51,51.18-2.74,17.76.22,37.87,12.26,51.92,10.8,12.59,27.94,13.15,43.24,13.26s15.46-23.89,0-24c-7.22-.05-13,.23-19.14-1.52A12,12,0,0,1,962,753.8a26.82,26.82,0,0,1-4.64-7.81c-5.78-14.26-2.52-29.44,3.62-43,7.61-16.76,17.59-34.2,16.17-53.3-1.28-17.2-10.73-32.34-27.25-38.4-6.09-2.23-13.15,2.5-14.76,8.38-1.84,6.69,2.27,12.52,8.38,14.76Z" transform="translate(-722.33 -251.92)"/><path class="cls-1" d="M1080.74,479.92c6.05,16.52,21.2,26,38.4,27.25,19.1,1.43,36.54-8.55,53.3-16.17,13.51-6.14,28.7-9.39,43-3.62a27.16,27.16,0,0,1,7.81,4.64,12,12,0,0,1,3.19,5.77c1.74,6,1.47,11.95,1.52,19.14.11,15.44,24.11,15.47,24,0-.11-15.14-.66-31.83-12.73-42.8-13.79-12.54-34.69-15.44-52.45-12.7-18.11,2.79-33.13,13.73-50.31,19.23-7.41,2.37-15.23,3.45-21.62,1.55a25.79,25.79,0,0,1-6.31-3,14.35,14.35,0,0,1-4.61-5.68c-2.23-6.08-8.14-10.2-14.76-8.38-5.86,1.61-10.62,8.65-8.38,14.76Z" transform="translate(-722.33 -251.92)"/><path class="cls-1" d="M1103.89,560.74c1.32-3.6,5.93-7.08,10.25-8.48,6.47-2.09,13.95-1.22,21.43,1.08,17.54,5.39,32.76,16.68,51.18,19.51,17.76,2.74,37.87-.22,51.92-12.26,12.59-10.8,13.15-27.94,13.26-43.24s-23.89-15.46-24,0c-.05,7.22.23,13-1.52,19.14a12,12,0,0,1-3.19,5.77,26.82,26.82,0,0,1-7.81,4.64c-14.26,5.78-29.44,2.52-43-3.62-16.76-7.61-34.2-17.59-53.3-16.17-17.2,1.28-32.34,10.73-38.4,27.25-2.23,6.09,2.5,13.15,8.38,14.76,6.69,1.84,12.52-2.27,14.76-8.38Z" transform="translate(-722.33 -251.92)"/><path class="cls-2" d="M947.15,621.67a112.35,112.35,0,0,1-64.59-64.36" transform="translate(-722.33 -251.92)"/><path class="cls-2" d="M1091.62,557.29a112.35,112.35,0,0,1-64.6,64.38" transform="translate(-722.33 -251.92)"/><path class="cls-2" d="M1027.16,412.39A112.35,112.35,0,0,1,1091.71,477" transform="translate(-722.33 -251.92)"/><path class="cls-2" d="M882.46,476.94A112.35,112.35,0,0,1,947,412.38" transform="translate(-722.33 -251.92)"/><circle class="cls-2" cx="265.17" cy="265.58" r="41.5"/><path class="cls-1" d="M1000.26,562.87A98,98,0,0,0,1019,579c5.2,3.55,13.54,1.15,16.42-4.31,3.22-6.09,1.24-12.63-4.31-16.42-.65-.45-1.31-.89-2-1.35.07,0-2.5-1.85-1.61-1.17s-.9-.74-1.06-.87q-1.1-.91-2.18-1.86a80.33,80.33,0,0,1-7-7.13c-4.15-4.74-12.78-4.56-17,0-4.64,5.05-4.43,11.92,0,17Z" transform="translate(-722.33 -251.92)"/></svg>