<svg id="Layer_1" data-name="Layer 1" xmlns="http://www.w3.org/2000/svg" viewBox="0 0 579.14 105.73"><defs><style>.cls-1{fill:#fff;stroke:#fff;stroke-miterlimit:10;stroke-width:4px;}</style></defs><title>querona</title><path class="cls-1" d="M766.09,578.89a6.38,6.38,0,0,1,1.9,4.45,6.09,6.09,0,0,1-1.9,4.45,6.19,6.19,0,0,1-4.45,2,6.93,6.93,0,0,1-4.57-2l-5.21-5.21q-12.7,8.51-29.46,8.51a52.48,52.48,0,0,1-26.23-6.48,45.29,45.29,0,0,1-17.84-18.1,57.73,57.73,0,0,1,0-52.64,45.42,45.42,0,0,1,17.84-18,56.07,56.07,0,0,1,52.32,0,45.86,45.86,0,0,1,17.91,18,53.28,53.28,0,0,1,6.41,26.29,56.82,56.82,0,0,1-3,18.67,47.2,47.2,0,0,1-8.57,15.24Zm-14-14a39.8,39.8,0,0,0,8-24.76,40.87,40.87,0,0,0-4.83-19.81,35.76,35.76,0,0,0-13.4-14,39.94,39.94,0,0,0-39,0,35.75,35.75,0,0,0-13.4,14,43.08,43.08,0,0,0,0,39.62A36,36,0,0,0,703,574a37.24,37.24,0,0,0,19.43,5.14,36.75,36.75,0,0,0,20.32-5.71S750.23,567.85,752.12,564.92Z" transform="translate(-669.98 -487.36)"/><path class="cls-1" d="M853.22,522a6.36,6.36,0,0,1,1.78,4.7v56.64a6.41,6.41,0,0,1-1.78,4.64A6.51,6.51,0,0,1,842,583.34v-1.4a28.22,28.22,0,0,1-9.65,6.29,32,32,0,0,1-11.94,2.22,32.35,32.35,0,0,1-15.75-3.81,26.83,26.83,0,0,1-10.92-11.11q-3.94-7.3-3.94-17.59V526.7a6.48,6.48,0,1,1,13,0v31.24q0,10.29,5.52,15.56T823,578.77a21.68,21.68,0,0,0,9.72-2.16,17.23,17.23,0,0,0,6.86-5.84,14.47,14.47,0,0,0,2.48-8.26V526.7a6.23,6.23,0,0,1,1.84-4.7,7,7,0,0,1,9.33,0Z" transform="translate(-669.98 -487.36)"/><path class="cls-1" d="M935.57,558a5.8,5.8,0,0,1-4.19,1.59H883.12a22.37,22.37,0,0,0,8.06,14.35A25.79,25.79,0,0,0,915.44,578a23.67,23.67,0,0,0,6.79-3.43,6.59,6.59,0,0,1,4.19-1.4,5.46,5.46,0,0,1,3.81,1.27,5.55,5.55,0,0,1,2.29,4.32,4.6,4.6,0,0,1-2,3.81,35.16,35.16,0,0,1-10.73,5.59,38.79,38.79,0,0,1-30.92-2.35,32.7,32.7,0,0,1-12.89-12.51,35.54,35.54,0,0,1-4.64-18.16,37.55,37.55,0,0,1,4.38-18.22,31.69,31.69,0,0,1,12.19-12.57,34.81,34.81,0,0,1,17.72-4.51,31.94,31.94,0,0,1,16.89,4.32,28.48,28.48,0,0,1,10.92,12.06A39.8,39.8,0,0,1,937.22,554,5.32,5.32,0,0,1,935.57,558Zm-45-22.16a22.81,22.81,0,0,0-7.3,13.59h42.29q-1.14-8.51-6.35-13.59t-13.59-5.08Q896.32,530.76,890.54,535.84Z" transform="translate(-669.98 -487.36)"/><path class="cls-1" d="M1000.3,521.62q3.81,2,3.81,5.08A4.52,4.52,0,0,1,1004,528q-1.14,4.07-5.08,4.06a10.44,10.44,0,0,1-1.91-.25,50.28,50.28,0,0,0-8.25-.89q-9.15,0-14.73,4.19a13.4,13.4,0,0,0-5.59,11.3v37.08a6.51,6.51,0,0,1-1.59,4.7,6.32,6.32,0,0,1-4.76,1.65,6.5,6.5,0,0,1-4.7-1.59,6.31,6.31,0,0,1-1.65-4.76V526.7a5.76,5.76,0,0,1,6.35-6.35q6.35,0,6.35,6.35v2.41a26.8,26.8,0,0,1,9.4-7,28.52,28.52,0,0,1,11.94-2.54Q996.49,519.58,1000.3,521.62Z" transform="translate(-669.98 -487.36)"/><path class="cls-1" d="M1028.7,585.81a31.84,31.84,0,0,1-12.45-12.51,39.58,39.58,0,0,1,0-36.45,31.86,31.86,0,0,1,12.45-12.51,36.36,36.36,0,0,1,18.16-4.51,35.76,35.76,0,0,1,18,4.51,32.45,32.45,0,0,1,12.45,12.51,39.34,39.34,0,0,1,.06,36.45A32,32,0,0,1,1065,585.81a38.71,38.71,0,0,1-36.26,0Zm29.78-10a21.07,21.07,0,0,0,8-8.45,25.8,25.8,0,0,0,2.86-12.25,26.19,26.19,0,0,0-2.86-12.32,21,21,0,0,0-8-8.51,23.67,23.67,0,0,0-23.24,0,21.4,21.4,0,0,0-8.06,8.51,25.69,25.69,0,0,0-2.92,12.32,25.31,25.31,0,0,0,2.92,12.25,21.5,21.5,0,0,0,8.06,8.45,23.68,23.68,0,0,0,23.24,0Z" transform="translate(-669.98 -487.36)"/><path class="cls-1" d="M1147.38,523.52a26.85,26.85,0,0,1,10.92,11.11q3.94,7.31,3.94,17.59v31.24a6.48,6.48,0,1,1-13,0V552.22q0-10.29-5.52-15.56t-14.67-5.27a21.69,21.69,0,0,0-9.71,2.16,17.25,17.25,0,0,0-6.86,5.84,14.47,14.47,0,0,0-2.48,8.25v35.81a6.41,6.41,0,0,1-1.78,4.64,6.51,6.51,0,0,1-11.18-4.64V526.82a6.23,6.23,0,0,1,1.84-4.7,6.45,6.45,0,0,1,11.11,4.7v1.4a28.24,28.24,0,0,1,9.65-6.29,33.89,33.89,0,0,1,27.69,1.59Z" transform="translate(-669.98 -487.36)"/><path class="cls-1" d="M1229.92,524.47a34.18,34.18,0,0,1,12.57,12.7,35.43,35.43,0,0,1,4.63,18v28.32a6.48,6.48,0,1,1-13,0v-4.7a32,32,0,0,1-41.08,7,32.06,32.06,0,0,1-11.68-12.64,37.89,37.89,0,0,1-4.25-18,35.8,35.8,0,0,1,4.57-18,33.4,33.4,0,0,1,12.64-12.7,35.17,35.17,0,0,1,17.84-4.64A34.49,34.49,0,0,1,1229.92,524.47Zm-6.22,51.31a22,22,0,0,0,8.06-8.51,25.07,25.07,0,0,0,2.92-12.13,25.45,25.45,0,0,0-2.92-12.19,22.39,22.39,0,0,0-31.05-8.57,22.33,22.33,0,0,0-8.13,8.57,25,25,0,0,0-3,12.19,24.63,24.63,0,0,0,3,12.13,22.41,22.41,0,0,0,8.13,8.51,22.79,22.79,0,0,0,23,0Z" transform="translate(-669.98 -487.36)"/></svg>